<svg width="31" height="31" viewBox="0 0 31 31" fill="none" xmlns="http://www.w3.org/2000/svg">
<g clip-path="url(#clip0_2014_1464)">
<mask id="mask0_2014_1464" style="mask-type:luminance" maskUnits="userSpaceOnUse" x="0" y="2" width="31" height="31">
<path d="M0 2H31V33H0V2Z" fill="white"/>
</mask>
<g mask="url(#mask0_2014_1464)">
<path d="M25.7118 9.43331H5.28825C4.51445 9.43331 3.77233 9.74071 3.22517 10.2879C2.678 10.835 2.37061 11.5772 2.37061 12.351V23.2921C2.37061 24.066 2.678 24.8081 3.22517 25.3552C3.77233 25.9024 4.51445 26.2098 5.28825 26.2098H13.6152C13.9945 26.6445 14.6926 26.9392 15.5 26.9392C16.3075 26.9392 17.0055 26.6445 17.3848 26.2098H25.7118C26.4856 26.2098 27.2277 25.9024 27.7749 25.3552C28.3221 24.8081 28.6294 24.066 28.6294 23.2921V12.351C28.6294 11.5772 28.3221 10.835 27.7749 10.2879C27.2277 9.74071 26.4856 9.43331 25.7118 9.43331Z" fill="#62D4FF"/>
<path d="M16.9587 24.0216C16.9587 24.4085 16.805 24.7796 16.5314 25.0532C16.2578 25.3268 15.8867 25.4805 15.4998 25.4805C15.1129 25.4805 14.7419 25.3268 14.4683 25.0532C14.1947 24.7796 14.041 24.4085 14.041 24.0216V10.8922C14.041 10.5053 14.1947 10.1343 14.4683 9.86068C14.7419 9.5871 15.1129 9.4334 15.4998 9.4334C15.8867 9.4334 16.2578 9.5871 16.5314 9.86068C16.805 10.1343 16.9587 10.5053 16.9587 10.8922V24.0216Z" fill="#49AAFF"/>
<path d="M15.5002 23.2922C15.5002 23.6791 15.3465 24.0501 15.0729 24.3237C14.7993 24.5973 14.4283 24.751 14.0414 24.751H5.28841C4.90151 24.751 4.53045 24.5973 4.25687 24.3237C3.98329 24.0501 3.82959 23.6791 3.82959 23.2922V10.1627C3.82959 9.77583 3.98329 9.40477 4.25687 9.13119C4.53045 8.8576 4.90151 8.70391 5.28841 8.70391H14.0414C14.4283 8.70391 14.7993 8.8576 15.0729 9.13119C15.3465 9.40477 15.5002 9.77583 15.5002 10.1627V23.2922Z" fill="#B0E9FF"/>
<path d="M15.4999 23.2922C14.7712 21.8349 12.8324 21.8334 12.5822 21.8334C11.1234 21.8334 8.93515 23.2922 6.74691 23.2922C6.0175 23.2922 5.28809 22.6387 5.28809 21.8334V10.1628C5.28809 9.35754 6.0175 8.70399 6.74691 8.70399C9.12115 8.70399 11.1234 7.24516 12.5822 7.24516C14.7704 7.24516 15.4999 8.62813 15.4999 9.4334V23.2922Z" fill="#EBF9FF"/>
<path d="M27.1706 23.2922C27.1706 23.6791 27.0169 24.0501 26.7433 24.3237C26.4697 24.5973 26.0987 24.751 25.7118 24.751H16.9588C16.5719 24.751 16.2009 24.5973 15.9273 24.3237C15.6537 24.0501 15.5 23.6791 15.5 23.2922V10.1627C15.5 9.77583 15.6537 9.40477 15.9273 9.13119C16.2009 8.8576 16.5719 8.70391 16.9588 8.70391H25.7118C26.0987 8.70391 26.4697 8.8576 26.7433 9.13119C27.0169 9.40477 27.1706 9.77583 27.1706 10.1627V23.2922Z" fill="#B0E9FF"/>
<path d="M15.5 23.2922C16.2287 21.8349 18.1675 21.8334 18.4176 21.8334C19.8765 21.8334 22.0647 23.2922 24.2529 23.2922C24.9824 23.2922 25.7118 22.6387 25.7118 21.8334V10.1628C25.7118 9.35754 24.9824 8.70399 24.2529 8.70399C21.878 8.70399 19.8765 7.24516 18.4176 7.24516C16.2294 7.24516 15.5 8.62813 15.5 9.4334V23.2922Z" fill="#CEF2FF"/>
</g>
<g clip-path="url(#clip1_2014_1464)">
<path d="M19.6545 8.34548C20.4225 9.11348 19.8011 9.7324 19.0908 10.5541L11.9017 18.8737C11.1919 19.6954 9.89733 19.6417 9.12933 18.8737C8.36132 18.1057 8.30811 16.8116 9.12933 16.1013L17.4454 8.90918C18.2671 8.1989 18.886 7.57797 19.654 8.34598L19.6545 8.34548Z" fill="#49AAFF"/>
<path d="M19.9545 11.2251C19.2382 11.1132 19.045 9.78348 18.5315 9.27248C18.0174 8.76048 16.6867 8.57476 16.5718 7.85896C16.4563 7.14316 17.6616 6.54883 17.9893 5.9023C18.3166 5.25577 18.0827 3.9326 18.7277 3.6018C19.3728 3.27101 20.3104 4.23377 21.0267 4.34521C21.743 4.45715 22.9292 3.82568 23.4432 4.33668C23.9567 4.84818 23.3312 6.03733 23.4462 6.75313C23.5616 7.46843 24.5284 8.40158 24.2006 9.04811C23.8734 9.69514 22.5492 9.46725 21.9042 9.79804C21.2591 10.1288 20.6708 11.3366 19.9545 11.2251ZM14.3546 4.20767C14.258 4.20743 14.1635 4.26878 14.0823 4.38435C14.0011 4.49991 13.9367 4.6648 13.8968 4.85922C13.7026 4.89904 13.5378 4.96335 13.4223 5.04446C13.3067 5.12556 13.2453 5.22001 13.2453 5.31651C13.245 5.41309 13.3064 5.50765 13.422 5.58885C13.5375 5.67005 13.7024 5.73444 13.8968 5.7743C13.9367 5.96882 14.001 6.13381 14.0822 6.24947C14.1634 6.36513 14.258 6.42655 14.3546 6.42635C14.4511 6.42633 14.5456 6.36481 14.6267 6.24917C14.7078 6.13352 14.7721 5.96865 14.8119 5.7743C15.0063 5.73444 15.1712 5.67005 15.2868 5.58885C15.4024 5.50765 15.4637 5.41309 15.4635 5.31651C15.4633 5.2201 15.4017 5.12575 15.2862 5.04475C15.1706 4.96374 15.006 4.89951 14.8119 4.85972C14.7722 4.66528 14.7079 4.50031 14.6268 4.38457C14.5457 4.26883 14.4512 4.20773 14.3546 4.20767ZM22.9422 11.4997C22.8456 11.4995 22.751 11.5609 22.6698 11.6766C22.5886 11.7922 22.5242 11.9572 22.4844 12.1517C22.2902 12.1916 22.1254 12.2559 22.0098 12.337C21.8943 12.4181 21.8328 12.5125 21.8329 12.609C21.8326 12.7056 21.894 12.8002 22.0095 12.8814C22.1251 12.9626 22.29 13.027 22.4844 13.0668C22.5243 13.2613 22.5887 13.4261 22.6699 13.5417C22.7511 13.6573 22.8456 13.7186 22.9422 13.7184C23.0387 13.7184 23.1332 13.657 23.2143 13.5414C23.2954 13.4258 23.3597 13.2611 23.3995 13.0668C23.5939 13.027 23.7588 12.9626 23.8744 12.8814C23.9899 12.8002 24.0513 12.7056 24.0511 12.609C24.0511 12.5125 23.9896 12.4181 23.8741 12.337C23.7585 12.2559 23.5938 12.1916 23.3995 12.1517C23.3597 11.9574 23.2954 11.7925 23.2143 11.6769C23.1332 11.5612 23.0387 11.4997 22.9422 11.4997ZM18.808 13.4925C18.7115 13.4925 18.6171 13.5539 18.536 13.6695C18.4549 13.785 18.3906 13.9498 18.3508 14.144C18.1567 14.1838 17.992 14.2481 17.8765 14.3291C17.7609 14.4101 17.6994 14.5044 17.6992 14.6008C17.6988 14.6975 17.76 14.7922 17.8756 14.8735C17.9912 14.9548 18.1562 15.0192 18.3508 15.0591C18.3906 15.2534 18.4549 15.4181 18.536 15.5337C18.6171 15.6493 18.7115 15.7107 18.808 15.7107C18.9046 15.7109 18.9992 15.6496 19.0804 15.534C19.1616 15.4184 19.226 15.2535 19.2658 15.0591C19.4603 15.0193 19.6251 14.9549 19.7407 14.8737C19.8563 14.7925 19.9176 14.6979 19.9174 14.6013C19.9174 14.5048 19.8558 14.4103 19.7402 14.3292C19.6245 14.2481 19.4597 14.1838 19.2653 14.144C19.2256 13.9499 19.1614 13.7851 19.0804 13.6695C18.9993 13.5538 18.905 13.4922 18.8085 13.492L18.808 13.4925ZM13.1479 7.97993C13.0514 7.9799 12.9569 8.04135 12.8758 8.1569C12.7947 8.27246 12.7304 8.43723 12.6906 8.63148C12.4962 8.67133 12.3313 8.73572 12.2157 8.81692C12.1002 8.89812 12.0388 8.99269 12.0391 9.08927C12.039 9.18576 12.1005 9.28022 12.216 9.36132C12.3316 9.44242 12.4964 9.50674 12.6906 9.54656C12.7304 9.7409 12.7947 9.90578 12.8758 10.0214C12.9569 10.1371 13.0514 10.1986 13.1479 10.1986C13.2445 10.1988 13.3391 10.1374 13.4203 10.0217C13.5015 9.90606 13.5659 9.74107 13.6057 9.54656C13.7999 9.50674 13.9647 9.44242 14.0803 9.36132C14.1958 9.28022 14.2573 9.18576 14.2572 9.08927C14.2575 8.99269 14.1961 8.89812 14.0806 8.81692C13.965 8.73572 13.8001 8.67133 13.6057 8.63148C13.5658 8.43705 13.5014 8.27217 13.4202 8.1566C13.339 8.04103 13.2445 7.97969 13.1479 7.97993Z" fill="#FFD500"/>
<path opacity="0.3" d="M23.5103 8.55526C23.5063 8.65543 23.4627 8.74992 23.3891 8.81805C23.3155 8.88617 23.2178 8.92238 23.1175 8.91876L21.6567 8.86306L20.7841 10.0319C20.7544 10.0717 20.717 10.1054 20.6743 10.1308C20.6315 10.1563 20.5842 10.1731 20.5349 10.1802C20.4856 10.1874 20.4354 10.1848 20.3872 10.1726C20.3389 10.1604 20.2935 10.1388 20.2536 10.109C20.2137 10.0793 20.18 10.042 20.1545 9.99928C20.129 9.95656 20.1122 9.90924 20.105 9.86002C20.0978 9.81081 20.1004 9.76066 20.1126 9.71245C20.1248 9.66424 20.1464 9.61891 20.1761 9.57904L21.167 8.24957C21.2037 8.2002 21.252 8.16056 21.3077 8.1341C21.3633 8.10764 21.4245 8.09516 21.4861 8.09776L23.1457 8.16191C23.2461 8.16579 23.3409 8.20931 23.4093 8.28291C23.4777 8.35652 23.514 8.45421 23.5104 8.55454L23.5103 8.55526Z" fill="white"/>
</g>
</g>
<defs>
<clipPath id="clip0_2014_1464">
<rect width="31" height="31" fill="white"/>
</clipPath>
<clipPath id="clip1_2014_1464">
<rect width="17" height="17" fill="white" transform="translate(8 3)"/>
</clipPath>
</defs>
</svg>
